<svg xmlns="http://www.w3.org/2000/svg" viewBox="0 0 128 128"><defs><style>.error-fill{fill:#cc4b37;}</style></defs><title>error</title><path class="error-fill" d="M64 0a64 64 0 1 0 64 64A64 64 0 0 0 64 0zm34.21 84.75a6.12 6.12 0 0 1 0 8.65l-5 5a6.12 6.12 0 0 1-8.65 0L64 77.8 43.42 98.38a6.12 6.12 0 0 1-8.65 0l-5-5a6.12 6.12 0 0 1 0-8.65l20.6-20.56-20.58-20.58a6.12 6.12 0 0 1 0-8.65l5-5a6.12 6.12 0 0 1 8.65 0L64 50.53 84.58 30a6.13 6.13 0 0 1 8.65 0l5 5a6.12 6.12 0 0 1 0 8.65l-20.6 20.52z" id="error"/></svg>
