<svg xmlns="http://www.w3.org/2000/svg" viewBox="0 0 37 49"><path fill="#fff" d="M29.56 13H9.85A1.85 1.85 0 0 1 8 11.15v-1.3A1.85 1.85 0 0 1 9.85 8h23.6c0-4.42-3.25-8-7.27-8H7.44C3.33 0 0 3.63 0 8.11v9.19A3.7 3.7 0 0 0 3.7 21h23.45A1.85 1.85 0 0 1 29 22.85v4.3A1.85 1.85 0 0 1 27.15 29H1.47c0 4.42 3.16 8 7.06 8h21c4.14 0 7.47-3.64 7.47-8.12v-7.76c0-4.48-3.33-8.12-7.44-8.12z"/><circle cx="4" cy="45" r="4" fill="#0073c0"/><circle cx="19" cy="45" r="4" fill="#fa2a92"/><circle cx="33" cy="45" r="4" fill="#f9c035"/></svg>
