<svg xmlns="http://www.w3.org/2000/svg" viewBox="0 0 48 64"><defs><style>.midnight-fill{fill:#202234;}.blue-fill{fill:#0073c0;}.magenta-fill{fill:#fa2a92;}.yellow-fill{fill:#f9c035;}</style></defs><title>icon</title><path id="logo-icon" data-name="logo-icon" class="midnight-fill" d="M38.4 17H13a2.4 2.4 0 0 1-2.4-2.4V13a2.4 2.4 0 0 1 2.4-2.4h31.2C44.16 4.73 39.86 0 34.56 0H9.6C4.3 0 0 4.76 0 10.62v12.1a4.81 4.81 0 0 0 4.8 4.8H35a2.4 2.4 0 0 1 2.4 2.4V35a2.4 2.4 0 0 1-2.4 2.4H0c0 6 4.3 10.88 9.6 10.88h28.8c5.3 0 9.6-4.75 9.6-10.61v-10.1C48 21.71 43.7 17 38.4 17z"/><circle class="blue-fill" cx="4.96" cy="59.04" r="4.96"/><circle class="magenta-fill" cx="24.16" cy="59.04" r="4.96"/><circle class="yellow-fill" cx="43.04" cy="59.04" r="4.96"/></svg>