<svg xmlns="http://www.w3.org/2000/svg" viewBox="0 0 300 97.66"><path fill="#fa2a92" d="M213.87 97.62l1.49-3.87-1.49 3.87zM215.69 45.16l-13.42 34.9-13.43-34.9C184.8 34.83 175 34.83 166.48 34.83l22.69 59a6.55 6.55 0 0 0 5.36 3.87H210a6.55 6.55 0 0 0 5.36-3.87l22.69-59c-8.55 0-18.32 0-22.36 10.33zM190.66 97.62l-1.49-3.87 1.49 3.87z"/><path d="M78.49 34.91H27.33a4.84 4.84 0 0 1-4.84-4.84v-2.88a4.84 4.84 0 0 1 4.84-4.84h61.72c0-11.55-8.51-20.91-19-20.91H20.29C9.62 1.44 1 10.94 1 22.66v24.09a9.7 9.7 0 0 0 9.67 9.67h60.8a4.84 4.84 0 0 1 4.83 4.84v10a4.83 4.83 0 0 1-4.83 4.83H0c0 11.89 8.76 21.52 19.56 21.52h58.93c10.66 0 19.31-9.51 19.31-21.24V56.15c0-11.74-8.65-21.24-19.31-21.24z" fill="#202234"/><path d="M155.07 34.91h-50.51a15.53 15.53 0 0 0 15.54 15.53H147a2.25 2.25 0 0 1 2.24 2.25v4.48a2.24 2.24 0 0 1-2.24 2.24h-33a9 9 0 0 0-9 9v19.62a9.7 9.7 0 0 0 9.67 9.67h40.43a9.7 9.7 0 0 0 9.67-9.67V44.58a9.7 9.7 0 0 0-9.7-9.67zm-31.18 47.21a3.89 3.89 0 0 1-3.8-4.74 4 4 0 0 1 3.91-3h21.14a4 4 0 0 1 3.91 3 3.89 3.89 0 0 1-3.8 4.74z" fill="#0073c0"/><path d="M259.45 73.75h24.88a15.47 15.47 0 0 0 15.48-15.47v-13.7a9.7 9.7 0 0 0-9.67-9.67h-40.43a9.7 9.7 0 0 0-9.67 9.67v43.41a9.7 9.7 0 0 0 9.67 9.67h34.82A15.22 15.22 0 0 0 300 82.72h-40.55a3.87 3.87 0 0 1-3.87-3.87v-1.23a3.87 3.87 0 0 1 3.87-3.87zm21.19-23.31a3.9 3.9 0 0 1 3.8 4.75 4 4 0 0 1-3.91 3H259.4a3.94 3.94 0 0 1-3.91-3 3.89 3.89 0 0 1 3.79-4.75z" fill="#f9c035"/><path d="M119.57 4.63a6.67 6.67 0 0 0-2.93-.7 6.51 6.51 0 0 0-3.24.83 6.12 6.12 0 0 0-3.14 5.41 6.18 6.18 0 0 0 3.14 5.45 6.42 6.42 0 0 0 3.24.85 7.06 7.06 0 0 0 2.87-.65 8.87 8.87 0 0 0 2.59-1.72l2.79 2.88a12.74 12.74 0 0 1-3.94 2.62 11.72 11.72 0 0 1-10.15-.39 10.19 10.19 0 0 1-4-3.71 10 10 0 0 1-1.44-5.27 9.61 9.61 0 0 1 1.47-5.22 10.29 10.29 0 0 1 4-3.67A12.11 12.11 0 0 1 116.51 0a11.88 11.88 0 0 1 4.5.9 11.49 11.49 0 0 1 3.78 2.43l-2.76 3.22a7.9 7.9 0 0 0-2.46-1.92zM145.82 1.34a10.28 10.28 0 0 1 4.06 3.69 9.58 9.58 0 0 1 1.49 5.23 9.68 9.68 0 0 1-1.49 5.24 10.4 10.4 0 0 1-4.06 3.71 12.75 12.75 0 0 1-11.46 0 10.37 10.37 0 0 1-4.06-3.7 10 10 0 0 1 0-10.48 10.32 10.32 0 0 1 4-3.69 12.94 12.94 0 0 1 11.47 0zm-8.91 3.43a6.36 6.36 0 0 0-2.37 2.29 6.12 6.12 0 0 0-.86 3.2 6 6 0 0 0 .88 3.21 6.56 6.56 0 0 0 2.37 2.31 6.36 6.36 0 0 0 9.58-5.52 6.21 6.21 0 0 0-.86-3.2 6.39 6.39 0 0 0-2.3-2.29 6.3 6.3 0 0 0-3.2-.84 6.52 6.52 0 0 0-3.24.84zM157.56.83h5.23l6.47 12.11L175.68.83h5.19v19.72h-4.18V6.95l-5.88 11.82h-3.05l-6-11.82v13.61h-4.19zM204.46 2.06a6.31 6.31 0 0 1 2.2 5.15 6.83 6.83 0 0 1-2.22 5.44 9.17 9.17 0 0 1-6.23 1.94H194v6h-4.78V.24h9a9.58 9.58 0 0 1 6.24 1.82zm-3.62 8.09a3 3 0 0 0 1-2.48 2.92 2.92 0 0 0-1-2.43 4.77 4.77 0 0 0-3-.81H194V11h3.83a4.59 4.59 0 0 0 3.01-.85zM237.63 20.56l-1.53-3.58h-9l-1.53 3.58h-5.24l9-19.72h4.84l8.86 19.72zm-9.32-7.73h6.62l-3.29-7.75zM263.35.83h4.78v19.72h-4.28L253.79 7.87v12.68H249V.83h4.26l10.08 12.73zM291 2.09a9.39 9.39 0 0 1 3.87 3.5 9.52 9.52 0 0 1 1.38 5.11 9.37 9.37 0 0 1-1.41 5.11 9.55 9.55 0 0 1-3.93 3.5 12.83 12.83 0 0 1-5.75 1.25h-8.66V.83h8.81A12.5 12.5 0 0 1 291 2.09zm-2.75 14.09a5.7 5.7 0 0 0 2.2-2.21 6.53 6.53 0 0 0 .79-3.24 6.39 6.39 0 0 0-.83-3.27 5.87 5.87 0 0 0-2.29-2.24 6.65 6.65 0 0 0-3.27-.79h-4.14v12.55H285a6.43 6.43 0 0 0 3.22-.8z" fill="#202234"/></svg>